<svg aria-hidden="true" style="position:absolute;width:0;height:0" xmlns="http://www.w3.org/2000/svg" overflow="hidden"><defs><symbol id="icon-chevron-small-left" viewBox="0 0 20 20"><path d="M12.141 13.418c.268.271.268.709 0 .978s-.701.272-.969 0l-3.83-3.908a.697.697 0 010-.979l3.83-3.908c.267-.27.701-.27.969 0s.268.709 0 .978L9 10l3.141 3.418z"/></symbol><symbol id="icon-chevron-small-right" viewBox="0 0 20 20"><path d="M11 10L7.859 6.58a.695.695 0 010-.978.68.68 0 01.969 0l3.83 3.908a.697.697 0 010 .979l-3.83 3.908c-.267.272-.701.27-.969 0s-.268-.707 0-.978L11 10z"/></symbol><symbol id="icon-arrow-thin-down" viewBox="0 0 20 20"><path d="M9 16.172l-6.071-6.071-1.414 1.414L10 20l8.485-8.485-1.414-1.414L11 16.172V0H9z"/></symbol><symbol id="icon-arrow-thin-up" viewBox="0 0 20 20"><path d="M9 3.828L2.929 9.899 1.515 8.485 10 0l8.485 8.485-1.414 1.414L11 3.828V20H9V3.828z"/></symbol><symbol id="icon-phone" viewBox="0 0 32 32"><path d="M22 20c-2 2-2 4-4 4s-4-2-6-4-4-4-4-6 2-2 4-4-4-8-6-8-6 6-6 6c0 4 4.109 12.109 8 16s12 8 16 8c0 0 6-4 6-6s-6-8-8-6z"/></symbol></defs></svg>